<?xml version="1.0" standalone="no"?>
<!DOCTYPE svg PUBLIC "-//W3C//DTD SVG 20010904//EN"
 "http://www.w3.org/TR/2001/REC-SVG-20010904/DTD/svg10.dtd">
<svg version="1.0" xmlns="http://www.w3.org/2000/svg"
 width="128.000000pt" height="128.000000pt" viewBox="0 0 128.000000 128.000000"
 preserveAspectRatio="xMidYMid meet">

<g transform="translate(0.000000,128.000000) scale(0.100000,-0.100000)"
fill="#000000" stroke="none">
<path d="M578 1251 l-33 -29 0 -582 0 -582 33 -29 c20 -18 43 -29 62 -29 19 0
42 11 62 29 l33 29 0 582 0 582 -33 29 c-20 18 -43 29 -62 29 -19 0 -42 -11
-62 -29z"/>
<path d="M344 1073 c-12 -2 -32 -15 -45 -29 l-24 -26 0 -378 0 -378 23 -25
c13 -14 36 -27 50 -30 34 -7 87 15 101 41 15 28 15 756 0 784 -9 16 -71 52
-81 47 -2 -1 -13 -4 -24 -6z"/>
<path d="M873 1065 c-17 -7 -36 -22 -42 -34 -15 -27 -15 -755 0 -783 14 -26
67 -48 101 -41 14 3 37 16 50 30 l23 25 0 379 0 379 -25 24 c-33 31 -67 38
-107 21z"/>
<path d="M29 841 l-29 -29 0 -172 0 -172 29 -29 c41 -40 91 -40 132 0 l29 29
0 172 0 172 -29 29 c-41 40 -91 40 -132 0z"/>
<path d="M1119 841 l-29 -29 0 -172 0 -172 29 -29 c38 -37 88 -39 128 -5 l28
24 3 176 3 176 -30 30 c-41 41 -91 41 -132 1z"/>
</g>
</svg>
